<?xml version="1.0" encoding="UTF-8"?><svg version="1.1" width="80px" height="80px" viewBox="0 0 80.0 80.0" xmlns="http://www.w3.org/2000/svg" xmlns:xlink="http://www.w3.org/1999/xlink"><defs><clipPath id="i0"><path d="M39.35546,0 C44.7591267,0 49.83726,1.0254 54.58986,3.0762 C59.34246,5.12693333 63.54166,7.97523333 67.18746,11.6211 C70.8333267,15.2669 73.6897933,19.4661 75.75686,24.2187 C77.8239267,28.9713667 78.85746,34.0332333 78.85746,39.4043 C78.85746,44.7753667 77.8239267,49.8372 75.75686,54.5898 C73.6897933,59.3424 70.8414933,63.5416333 67.21196,67.1875 C63.58236,70.8333333 59.39126,73.68164 54.63866,75.73242 C49.88606,77.7832 44.8079267,78.80859 39.40426,78.80859 C34.0331933,78.80859 28.97136,77.7832 24.21876,75.73242 C19.46616,73.68164 15.27506,70.8333333 11.64546,67.1875 C8.01592667,63.5416333 5.16763333,59.3424 3.10058,54.5898 C1.03352667,49.8372 0,44.7753667 0,39.4043 C0,34.0332333 1.03352667,28.9713667 3.10058,24.2187 C5.16763333,19.4661 8.00779333,15.2669 11.62106,11.6211 C15.2343933,7.97523333 19.41736,5.12693333 24.16996,3.0762 C28.92256,1.0254 33.9843933,0 39.35546,0 Z"></path></clipPath><clipPath id="i1"><path d="M19.043,0 C20.2148667,0 21.1507333,0.358066667 21.8506,1.0742 C22.5504667,1.79033333 22.9004,2.71806667 22.9004,3.8574 L22.9004,15.2832 L34.375,15.2832 C35.4818,15.2832 36.4014,15.6412667 37.1338,16.3574 C37.8662667,17.0735333 38.2325,18.0012667 38.2325,19.1406 C38.2325,20.2474 37.8662667,21.1507333 37.1338,21.8506 C36.4014,22.5504667 35.4818,22.9004 34.375,22.9004 L22.9004,22.9004 L22.9004,34.3262 C22.9004,35.4655333 22.5504667,36.3932667 21.8506,37.1094 C21.1507333,37.8255333 20.2148667,38.1836 19.043,38.1836 C17.9362,38.1836 17.0328667,37.8255333 16.333,37.1094 C15.6331333,36.3932667 15.2832,35.4655333 15.2832,34.3262 L15.2832,22.9004 L3.9063,22.9004 C2.73443333,22.9004 1.79043333,22.5504667 1.0743,21.8506 C0.3581,21.1507333 0,20.2474 0,19.1406 C0,18.0012667 0.3581,17.0735333 1.0743,16.3574 C1.79043333,15.6412667 2.73443333,15.2832 3.9063,15.2832 L15.2832,15.2832 L15.2832,3.8574 C15.2832,2.71806667 15.6331333,1.79033333 16.333,1.0742 C17.0328667,0.358066667 17.9362,0 19.043,0 Z"></path></clipPath></defs><g transform="translate(-1410.0 -621.0)"><g transform="translate(522.48494 618.8027)"><g transform="translate(887.9309999999998 2.539100000000076)"><g clip-path="url(#i0)"><polygon points="0,0 78.85746,0 78.85746,78.80859 0,78.80859 0,0" stroke="none" fill="#28CD41"></polygon></g><g transform="translate(20.312460000000037 20.31249999999999)"><g clip-path="url(#i1)"><polygon points="0,0 38.2325,0 38.2325,38.1836 0,38.1836 0,0" stroke="none" fill="#FFFFFF"></polygon></g></g></g></g></g></svg>