<?xml version="1.0" encoding="UTF-8"?><svg version="1.1" width="80px" height="80px" viewBox="0 0 80.0 80.0" xmlns="http://www.w3.org/2000/svg" xmlns:xlink="http://www.w3.org/1999/xlink"><defs><clipPath id="i0"><path d="M39.35546,0 C44.75916,0 49.83726,1.0254 54.58986,3.0762 C59.34246,5.1269 63.54166,7.9752 67.18746,11.6211 C70.83336,15.2669 73.68976,19.4661 75.75686,24.2187 C77.82396,28.9714 78.85746,34.0332 78.85746,39.4043 C78.85746,44.7754 77.82396,49.8372 75.75686,54.5898 C73.68976,59.3424 70.84146,63.5416 67.21196,67.1875 C63.58236,70.83333 59.39126,73.68164 54.63866,75.73242 C49.88606,77.7832 44.80796,78.80859 39.40426,78.80859 C34.03316,78.80859 28.97136,77.7832 24.21876,75.73242 C19.46616,73.68164 15.27506,70.83333 11.64546,67.1875 C8.01596,63.5416 5.16766,59.3424 3.10058,54.5898 C1.03353,49.8372 0,44.7754 0,39.4043 C0,34.0332 1.03353,28.9714 3.10058,24.2187 C5.16766,19.4661 8.00776,15.2669 11.62106,11.6211 C15.23436,7.9752 19.41736,5.1269 24.16996,3.0762 C28.92256,1.0254 33.98436,0 39.35546,0 Z"></path></clipPath><clipPath id="i1"><path d="M10.8833,0 C14.9256,0 17.6464,1.8657 21.0669,4.742 C23.8265,7.0741 25.9255,8.5511 27.9466,8.5511 C30.3565,8.5511 31.678,7.0741 32.4165,3.7702 C32.7663,2.1766 33.6603,1.0883 35.4872,1.0883 C37.3529,1.0883 38.48,2.5264 38.48,4.3921 C38.48,5.4416 38.3246,6.4522 38.0525,7.385 C36.731,11.8549 33.0773,14.7701 28.0244,14.7701 C24.0986,14.7701 21.1446,13.0599 16.6358,9.2119 C14.9256,7.7348 13.1765,6.219 10.9221,6.219 C8.2013,6.219 6.8021,7.8903 6.0636,11.1553 C5.7137,12.6712 4.8198,13.8372 3.1484,13.8372 C1.0884,13.8372 0,12.3991 0,10.4168 C0,9.4839 0.1166,8.59 0.3499,7.7737 C1.6325,2.8374 5.7915,0 10.8833,0 Z"></path></clipPath></defs><g transform="translate(-1410.0 -621.0)"><g transform="translate(522.0 619.1418)"><g transform="translate(888.4159399999999 2.2000000000000455)"><g clip-path="url(#i0)"><polygon points="0,0 78.85746,0 78.85746,78.80859 0,78.80859 0,0" stroke="none" fill="#FF8000"></polygon></g><g transform="translate(20.548860000000047 31.267600000000016)"><g clip-path="url(#i1)"><polygon points="0,0 38.48,0 38.48,14.7701 0,14.7701 0,0" stroke="none" fill="#FFFFFF"></polygon></g></g></g></g></g></svg>