<?xml version="1.0" encoding="UTF-8"?><svg version="1.1" width="80px" height="80px" viewBox="0 0 80.0 80.0" xmlns="http://www.w3.org/2000/svg" xmlns:xlink="http://www.w3.org/1999/xlink"><defs><clipPath id="i0"><path d="M39.35546,0 C44.7591267,0 49.83726,1.0254 54.58986,3.0762 C59.34246,5.12693333 63.54166,7.97523333 67.18746,11.6211 C70.8333267,15.2669 73.6897933,19.4661 75.75686,24.2187 C77.8239267,28.9713667 78.85746,34.0332333 78.85746,39.4043 C78.85746,44.7753667 77.8239267,49.8372 75.75686,54.5898 C73.6897933,59.3424 70.8414933,63.5416333 67.21196,67.1875 C63.58236,70.8333333 59.39126,73.68164 54.63866,75.73242 C49.88606,77.7832 44.8079267,78.80859 39.40426,78.80859 C34.0331933,78.80859 28.97136,77.7832 24.21876,75.73242 C19.46616,73.68164 15.27506,70.8333333 11.64546,67.1875 C8.01592667,63.5416333 5.16763333,59.3424 3.10058,54.5898 C1.03352667,49.8372 0,44.7753667 0,39.4043 C0,34.0332333 1.03352667,28.9713667 3.10058,24.2187 C5.16763333,19.4661 8.00779333,15.2669 11.62106,11.6211 C15.2343933,7.97523333 19.41736,5.12693333 24.16996,3.0762 C28.92256,1.0254 33.9843933,0 39.35546,0 Z"></path></clipPath><clipPath id="i1"><path d="M32.5195,0 C33.4635,0 34.318,0.293 35.083,0.879 C35.848,1.46493333 36.2305,2.27873333 36.2305,3.3204 C36.2305,3.80866667 36.1084,4.30506667 35.8642,4.8096 C35.6200667,5.3142 35.3678,5.79433333 35.1074,6.25 L17.6758,33.7891 C16.7968667,35.2214333 15.5761667,35.9376 14.0137,35.9376 C13.2649667,35.9376 12.5732333,35.7667 11.9385,35.4249 C11.3037,35.0831 10.6933333,34.5378333 10.1074,33.7891 L1.0254,22.4122 C0.3418,21.5332667 0,20.5892333 0,19.5801 C0,18.6035667 0.333666667,17.7572333 1.001,17.0411 C1.66826667,16.3249 2.50646667,15.9668 3.5156,15.9668 C4.13406667,15.9668 4.70373333,16.0970333 5.2246,16.3575 C5.7454,16.6179 6.26623333,17.1061667 6.7871,17.8223 L13.8183,27.2461 L29.3945,2.002 C30.2083,0.667333333 31.2499667,0 32.5195,0 Z"></path></clipPath></defs><g transform="translate(-1410.0 -621.0)"><g transform="translate(522.48494 618.8027)"><g transform="translate(887.9309999999998 2.539100000000076)"><g clip-path="url(#i0)"><polygon points="0,0 78.85746,0 78.85746,78.80859 0,78.80859 0,0" stroke="none" fill="#0079FF"></polygon></g><g transform="translate(21.09376000000005 22.31439999999999)"><g clip-path="url(#i1)"><polygon points="0,0 36.2305,0 36.2305,35.9376 0,35.9376 0,0" stroke="none" fill="#FFFFFF"></polygon></g></g></g></g></g></svg>