<?xml version="1.0" encoding="UTF-8"?><svg version="1.1" width="80px" height="80px" viewBox="0 0 80.0 80.0" xmlns="http://www.w3.org/2000/svg" xmlns:xlink="http://www.w3.org/1999/xlink"><defs><clipPath id="i0"><path d="M39.35546,0 C44.7591267,0 49.83726,1.0254 54.58986,3.0762 C59.34246,5.12693333 63.54166,7.97523333 67.18746,11.6211 C70.8333267,15.2669 73.6897933,19.4661 75.75686,24.2187 C77.8239267,28.9713667 78.85746,34.0332333 78.85746,39.4043 C78.85746,44.7753667 77.8239267,49.8372 75.75686,54.5898 C73.6897933,59.3424 70.8414933,63.5416333 67.21196,67.1875 C63.58236,70.8333333 59.39126,73.68164 54.63866,75.73242 C49.88606,77.7832 44.8079267,78.80859 39.40426,78.80859 C34.0331933,78.80859 28.97136,77.7832 24.21876,75.73242 C19.46616,73.68164 15.27506,70.8333333 11.64546,67.1875 C8.01592667,63.5416333 5.16763333,59.3424 3.10058,54.5898 C1.03352667,49.8372 0,44.7753667 0,39.4043 C0,34.0332333 1.03352667,28.9713667 3.10058,24.2187 C5.16763333,19.4661 8.00779333,15.2669 11.62106,11.6211 C15.2343933,7.97523333 19.41736,5.12693333 24.16996,3.0762 C28.92256,1.0254 33.9843933,0 39.35546,0 Z"></path></clipPath><clipPath id="i1"><path d="M11.4258,17.6758 C12.5651333,17.6758 13.4359,18.0501333 14.0381,18.7988 C14.6403,19.5475333 14.9414,20.5403667 14.9414,21.7773 L14.9414,40.6738 L19.3848,40.6738 C20.2962667,40.6738 21.0775,40.9830667 21.7285,41.6016 C22.3795667,42.2200667 22.7051,42.9687667 22.7051,43.8477 C22.7051,44.7917 22.3795667,45.5566667 21.7285,46.1426 C21.0775,46.7285333 20.2962667,47.0215 19.3848,47.0215 L3.2715,47.0215 C2.36003333,47.0215 1.58693333,46.7285333 0.9522,46.1426 C0.3174,45.5566667 0,44.7917 0,43.8477 C0,42.9687667 0.3174,42.2200667 0.9522,41.6016 C1.58693333,40.9830667 2.36003333,40.6738 3.2715,40.6738 L7.7149,40.6738 L7.7149,24.0234 L4.0527,24.0234 C3.1413,24.0234 2.3682,23.7223 1.7334,23.1201 C1.09866667,22.5179 0.7813,21.7448 0.7813,20.8008 C0.7813,19.9218667 1.09866667,19.1813 1.7334,18.5791 C2.3682,17.9769 3.1413,17.6758 4.0527,17.6758 L11.4258,17.6758 Z M9.7168,0 C11.3118667,0 12.6546333,0.553366667 13.7451,1.6601 C14.8356333,2.7669 15.3809,4.1341 15.3809,5.7617 C15.3809,7.35676667 14.8356333,8.70766667 13.7451,9.8144 C12.6546333,10.9212 11.3118667,11.4746 9.7168,11.4746 C8.12173333,11.4746 6.77896667,10.9212 5.6885,9.8144 C4.59796667,8.70766667 4.0527,7.35676667 4.0527,5.7617 C4.0527,4.1341 4.59796667,2.7669 5.6885,1.6601 C6.77896667,0.553366667 8.12173333,0 9.7168,0 Z"></path></clipPath></defs><g transform="translate(-1410.0 -621.0)"><g transform="translate(522.48494 618.8027)"><g transform="translate(887.9309999999998 2.539100000000076)"><g clip-path="url(#i0)"><polygon points="0,0 78.85746,0 78.85746,78.80859 0,78.80859 0,0" stroke="none" fill="#0079FF"></polygon></g><g transform="translate(29.296860000000066 14.404299999999985)"><g clip-path="url(#i1)"><polygon points="0,0 22.7051,0 22.7051,47.0215 0,47.0215 0,0" stroke="none" fill="#FFFFFF"></polygon></g></g></g></g></g></svg>