<?xml version="1.0" encoding="UTF-8"?><svg version="1.1" width="79px" height="76px" viewBox="0 0 79.0 76.0" xmlns="http://www.w3.org/2000/svg" xmlns:xlink="http://www.w3.org/1999/xlink"><defs><clipPath id="i0"><path d="M50.97658,0 C52.47398,0 53.7679133,0.154633333 54.85838,0.4639 C55.9489133,0.773166667 56.92548,1.2289 57.78808,1.8311 C58.6507467,2.4333 59.47268,3.17386667 60.25388,4.0528 L74.56058,20.0684 C75.89518,21.5332 76.7822133,22.8678333 77.22168,24.0723 C77.6611467,25.2767 77.88088,26.8392 77.88088,28.7598 L77.88088,45.8985 C77.88088,47.8190333 77.6611467,49.3733667 77.22168,50.5615 C76.7822133,51.7497 75.89518,53.0762 74.56058,54.541 L60.25388,70.55666 C59.47268,71.435566 58.6507467,72.1761257 57.78808,72.778339 C56.92548,73.380553 55.9489133,73.8362833 54.85838,74.14553 C53.7679133,74.45477 52.47398,74.60939 50.97658,74.60939 L26.85548,74.60939 C25.3906133,74.60939 24.1129467,74.45477 23.02248,74.14553 C21.9319467,73.8362833 20.95538,73.380553 20.09278,72.778339 C19.23018,72.1761257 18.4082467,71.435566 17.62698,70.55666 L3.27148,54.541 C1.96941333,53.0762 1.09864667,51.7497 0.65918,50.5615 C0.219726667,49.3733667 0,47.8190333 0,45.8985 L0,28.7598 C0,26.8392 0.219726667,25.2767 0.65918,24.0723 C1.09864667,22.8678333 1.96941333,21.5332 3.27148,20.0684 L17.62698,4.0528 C18.4082467,3.17386667 19.23018,2.4333 20.09278,1.8311 C20.95538,1.2289 21.9319467,0.773166667 23.02248,0.4639 C24.1129467,0.154633333 25.3906133,0 26.85548,0 Z"></path></clipPath><clipPath id="i1"><path d="M4.6386,32.5683 C5.90813333,32.5683 7.00676667,32.9996333 7.9345,33.8623 C8.86223333,34.7249 9.3261,35.7909667 9.3261,37.0605 C9.3261,38.3300333 8.86223333,39.388 7.9345,40.2344 C7.00676667,41.0807333 5.90813333,41.5039 4.6386,41.5039 C3.40166667,41.5039 2.31933333,41.0725667 1.3916,40.2099 C0.463866667,39.3473 0,38.2975 0,37.0605 C0,35.8235667 0.463866667,34.7656333 1.3916,33.8867 C2.31933333,33.0077667 3.40166667,32.5683 4.6386,32.5683 Z M4.6386,0 C5.81053333,0 6.7871,0.382466667 7.5683,1.1474 C8.34956667,1.9124 8.72393333,2.86456667 8.6914,4.0039 L8.1054,24.7558 C8.04033333,27.0996 6.88473333,28.2715 4.6386,28.2715 C2.36,28.2715 1.18813333,27.0996 1.123,24.7558 L0.5859,3.9551 C0.553366667,2.81576667 0.919566667,1.87173333 1.6845,1.123 C2.4495,0.374333333 3.4342,0 4.6386,0 Z"></path></clipPath></defs><g transform="translate(-1410.0 -623.0)"><g transform="translate(522.97262 620.0234)"><g transform="translate(887.933 3.613299999999981)"><g clip-path="url(#i0)"><polygon points="0,0 77.88088,0 77.88088,74.60939 0,74.60939 0,0" stroke="none" fill="#FF3B30"></polygon></g><g transform="translate(34.27738000000007 16.259799999999988)"><g clip-path="url(#i1)"><polygon points="0,0 9.3261,0 9.3261,41.5039 0,41.5039 0,0" stroke="none" fill="#FFFFFF"></polygon></g></g></g></g></g></svg>