<?xml version="1.0" encoding="UTF-8"?><svg version="1.1" width="80px" height="80px" viewBox="0 0 80.0 80.0" xmlns="http://www.w3.org/2000/svg" xmlns:xlink="http://www.w3.org/1999/xlink"><defs><clipPath id="i0"><path d="M39.35546,0 C44.7591267,0 49.83726,1.0254 54.58986,3.0762 C59.34246,5.12693333 63.54166,7.97523333 67.18746,11.6211 C70.8333267,15.2669 73.6897933,19.4661 75.75686,24.2187 C77.8239267,28.9713667 78.85746,34.0332333 78.85746,39.4043 C78.85746,44.7753667 77.8239267,49.8372 75.75686,54.5898 C73.6897933,59.3424 70.8414933,63.5416333 67.21196,67.1875 C63.58236,70.8333333 59.39126,73.68164 54.63866,75.73242 C49.88606,77.7832 44.8079267,78.80859 39.40426,78.80859 C34.0331933,78.80859 28.97136,77.7832 24.21876,75.73242 C19.46616,73.68164 15.27506,70.8333333 11.64546,67.1875 C8.01592667,63.5416333 5.16763333,59.3424 3.10058,54.5898 C1.03352667,49.8372 0,44.7753667 0,39.4043 C0,34.0332333 1.03352667,28.9713667 3.10058,24.2187 C5.16763333,19.4661 8.00779333,15.2669 11.62106,11.6211 C15.2343933,7.97523333 19.41736,5.12693333 24.16996,3.0762 C28.92256,1.0254 33.9843933,0 39.35546,0 Z"></path></clipPath><clipPath id="i1"><path d="M34.1796,0 C35.5142667,0 36.5641,0.333666667 37.3291,1.001 C38.0940333,1.66833333 38.4765,2.6205 38.4765,3.8575 C38.4765,5.0619 38.0777333,5.98963333 37.2802,6.6407 C36.4826667,7.2917 35.4491333,7.6172 34.1796,7.6172 L4.3457,7.6172 C3.07616667,7.6172 2.0345,7.2917 1.2207,6.6407 C0.4069,5.98963333 0,5.0619 0,3.8575 C0,2.6205 0.3906,1.66833333 1.1718,1.001 C1.95306667,0.333666667 3.01103333,0 4.3457,0 L34.1796,0 Z"></path></clipPath></defs><g transform="translate(-1410.0 -621.0)"><g transform="translate(522.48494 618.8027)"><g transform="translate(887.9309999999998 2.539100000000076)"><g clip-path="url(#i0)"><polygon points="0,0 78.85746,0 78.85746,78.80859 0,78.80859 0,0" stroke="none" fill="#FF3B30"></polygon></g><g transform="translate(20.166060000000037 35.64449999999999)"><g clip-path="url(#i1)"><polygon points="0,0 38.4765,0 38.4765,7.6172 0,7.6172 0,0" stroke="none" fill="#FFFFFF"></polygon></g></g></g></g></g></svg>