<?xml version="1.0" encoding="UTF-8"?><svg version="1.1" width="80px" height="74px" viewBox="0 0 80.0 74.0" xmlns="http://www.w3.org/2000/svg" xmlns:xlink="http://www.w3.org/1999/xlink"><defs><clipPath id="i0"><path d="M39.502,0 C41.097,0 42.6432,0.4069 44.1406,1.2207 C45.638,2.0345 46.8099,3.22266667 47.6563,4.7852 L77.7832,58.6426 C78.1738,59.3587333 78.4749,60.1155667 78.6865,60.9131 C78.8981,61.7106467 79.0039,62.5000433 79.0039,63.28129 C79.0039,65.0716567 78.6214,66.6748467 77.8564,68.09086 C77.0914667,69.5068733 76.001,70.6380587 74.585,71.484416 C73.1689333,72.330772 71.4843667,72.75395 69.5313,72.75395 L9.4727,72.75395 C7.51956667,72.75395 5.83496667,72.330772 4.4189,71.484416 C3.0029,70.6380587 1.91242,69.5068733 1.14746,68.09086 C0.382486667,66.6748467 0,65.0716567 0,63.28129 C0,61.7838967 0.439453333,60.2376667 1.31836,58.6426 L31.3477,4.7852 C32.2265667,3.22266667 33.4065667,2.0345 34.8877,1.2207 C36.3688333,0.4069 37.9069333,0 39.502,0 Z"></path></clipPath><clipPath id="i1"><path d="M4.6387,32.5684 C5.90823333,32.5684 7.00686667,32.9997 7.9346,33.8623 C8.86233333,34.7249667 9.3262,35.7910667 9.3262,37.0606 C9.3262,38.3301333 8.86233333,39.3880667 7.9346,40.2344 C7.00686667,41.0807333 5.90823333,41.5039 4.6387,41.5039 C3.4017,41.5039 2.31933333,41.0726 1.3916,40.21 C0.463866667,39.3474 0,38.2976 0,37.0606 C0,35.8236 0.463866667,34.7656667 1.3916,33.8868 C2.31933333,33.0078667 3.4017,32.5684 4.6387,32.5684 Z M4.6387,0 C5.81056667,0 6.7871,0.3825 7.5683,1.1475 C8.34956667,1.9125 8.72393333,2.86463333 8.6914,4.0039 L8.1054,24.7559 C8.04033333,27.0996333 6.88476667,28.2715 4.6387,28.2715 C2.36003333,28.2715 1.18813333,27.0996333 1.123,24.7559 L0.5859,3.9551 C0.553366667,2.81576667 0.9196,1.87176667 1.6846,1.1231 C2.44953333,0.374366667 3.43423333,0 4.6387,0 Z"></path></clipPath></defs><g transform="translate(-1410.0 -624.0)"><g transform="translate(520.8905 623.0508)"><g transform="translate(889.452 1.318300000000022)"><g clip-path="url(#i0)"><polygon points="0,0 79.0039,0 79.0039,72.75395 0,72.75395 0,0" stroke="none" fill="#FFCC00"></polygon></g><g transform="translate(34.86329999999997 18.750000000000007)"><g clip-path="url(#i1)"><polygon points="0,0 9.3262,0 9.3262,41.5039 0,41.5039 0,0" stroke="none" fill="#FFFFFF"></polygon></g></g></g></g></g></svg>